<mxfile host="app.diagrams.net" agent="Mozilla/5.0 (Windows NT 10.0; Win64; x64) AppleWebKit/537.36 (KHTML, like Gecko) Chrome/129.0.0.0 Safari/537.36" version="24.7.16">
  <diagram name="Página-1" id="ES9ilwemXFSoBHIErOK8">
    <mxGraphModel dx="1050" dy="1691" grid="1" gridSize="10" guides="1" tooltips="1" connect="1" arrows="1" fold="1" page="1" pageScale="1" pageWidth="827" pageHeight="1169" math="0" shadow="0">
      <root>
        <mxCell id="0" />
        <mxCell id="1" parent="0" />
        <mxCell id="A3PVL-LssGaaPiKk9e5L-19" style="edgeStyle=orthogonalEdgeStyle;rounded=0;orthogonalLoop=1;jettySize=auto;html=1;entryX=0;entryY=0.5;entryDx=0;entryDy=0;curved=1;" parent="1" source="A3PVL-LssGaaPiKk9e5L-1" target="A3PVL-LssGaaPiKk9e5L-5" edge="1">
          <mxGeometry relative="1" as="geometry" />
        </mxCell>
        <mxCell id="A3PVL-LssGaaPiKk9e5L-20" style="edgeStyle=orthogonalEdgeStyle;rounded=0;orthogonalLoop=1;jettySize=auto;html=1;entryX=0;entryY=0.5;entryDx=0;entryDy=0;curved=1;" parent="1" source="A3PVL-LssGaaPiKk9e5L-1" target="A3PVL-LssGaaPiKk9e5L-6" edge="1">
          <mxGeometry relative="1" as="geometry" />
        </mxCell>
        <mxCell id="A3PVL-LssGaaPiKk9e5L-21" style="edgeStyle=orthogonalEdgeStyle;rounded=0;orthogonalLoop=1;jettySize=auto;html=1;curved=1;" parent="1" source="A3PVL-LssGaaPiKk9e5L-1" target="A3PVL-LssGaaPiKk9e5L-7" edge="1">
          <mxGeometry relative="1" as="geometry" />
        </mxCell>
        <mxCell id="A3PVL-LssGaaPiKk9e5L-22" style="edgeStyle=orthogonalEdgeStyle;rounded=0;orthogonalLoop=1;jettySize=auto;html=1;curved=1;dashed=1;" parent="1" source="A3PVL-LssGaaPiKk9e5L-14" target="A3PVL-LssGaaPiKk9e5L-13" edge="1">
          <mxGeometry relative="1" as="geometry" />
        </mxCell>
        <mxCell id="A3PVL-LssGaaPiKk9e5L-55" value="Include" style="edgeLabel;html=1;align=center;verticalAlign=middle;resizable=0;points=[];" parent="A3PVL-LssGaaPiKk9e5L-22" vertex="1" connectable="0">
          <mxGeometry x="0.0042" y="4" relative="1" as="geometry">
            <mxPoint x="4" y="-85" as="offset" />
          </mxGeometry>
        </mxCell>
        <mxCell id="A3PVL-LssGaaPiKk9e5L-23" style="edgeStyle=orthogonalEdgeStyle;rounded=0;orthogonalLoop=1;jettySize=auto;html=1;entryX=0;entryY=0.5;entryDx=0;entryDy=0;curved=1;" parent="1" source="A3PVL-LssGaaPiKk9e5L-1" target="A3PVL-LssGaaPiKk9e5L-8" edge="1">
          <mxGeometry relative="1" as="geometry" />
        </mxCell>
        <mxCell id="A3PVL-LssGaaPiKk9e5L-24" style="edgeStyle=orthogonalEdgeStyle;rounded=0;orthogonalLoop=1;jettySize=auto;html=1;entryX=0;entryY=0.5;entryDx=0;entryDy=0;curved=1;" parent="1" source="A3PVL-LssGaaPiKk9e5L-1" target="A3PVL-LssGaaPiKk9e5L-14" edge="1">
          <mxGeometry relative="1" as="geometry" />
        </mxCell>
        <mxCell id="A3PVL-LssGaaPiKk9e5L-25" style="edgeStyle=orthogonalEdgeStyle;rounded=0;orthogonalLoop=1;jettySize=auto;html=1;entryX=0;entryY=0.5;entryDx=0;entryDy=0;curved=1;" parent="1" source="A3PVL-LssGaaPiKk9e5L-1" target="A3PVL-LssGaaPiKk9e5L-9" edge="1">
          <mxGeometry relative="1" as="geometry" />
        </mxCell>
        <mxCell id="A3PVL-LssGaaPiKk9e5L-26" style="edgeStyle=orthogonalEdgeStyle;rounded=0;orthogonalLoop=1;jettySize=auto;html=1;entryX=0;entryY=0.5;entryDx=0;entryDy=0;curved=1;" parent="1" source="A3PVL-LssGaaPiKk9e5L-1" target="A3PVL-LssGaaPiKk9e5L-10" edge="1">
          <mxGeometry relative="1" as="geometry" />
        </mxCell>
        <mxCell id="A3PVL-LssGaaPiKk9e5L-27" style="edgeStyle=orthogonalEdgeStyle;rounded=0;orthogonalLoop=1;jettySize=auto;html=1;entryX=0;entryY=0.5;entryDx=0;entryDy=0;curved=1;" parent="1" source="A3PVL-LssGaaPiKk9e5L-1" target="A3PVL-LssGaaPiKk9e5L-15" edge="1">
          <mxGeometry relative="1" as="geometry" />
        </mxCell>
        <mxCell id="A3PVL-LssGaaPiKk9e5L-28" style="edgeStyle=orthogonalEdgeStyle;rounded=0;orthogonalLoop=1;jettySize=auto;html=1;entryX=0;entryY=0.5;entryDx=0;entryDy=0;curved=1;" parent="1" source="A3PVL-LssGaaPiKk9e5L-1" target="A3PVL-LssGaaPiKk9e5L-11" edge="1">
          <mxGeometry relative="1" as="geometry">
            <mxPoint x="400" y="880" as="targetPoint" />
          </mxGeometry>
        </mxCell>
        <mxCell id="fVEAx7NrUSZAST1FFZmU-1" style="edgeStyle=orthogonalEdgeStyle;rounded=0;orthogonalLoop=1;jettySize=auto;html=1;entryX=0;entryY=0.5;entryDx=0;entryDy=0;curved=1;" parent="1" source="A3PVL-LssGaaPiKk9e5L-1" target="A3PVL-LssGaaPiKk9e5L-13" edge="1">
          <mxGeometry relative="1" as="geometry">
            <mxPoint x="960" y="10" as="targetPoint" />
          </mxGeometry>
        </mxCell>
        <mxCell id="fVEAx7NrUSZAST1FFZmU-3" style="edgeStyle=orthogonalEdgeStyle;rounded=0;orthogonalLoop=1;jettySize=auto;html=1;entryX=0;entryY=0.5;entryDx=0;entryDy=0;curved=1;" parent="1" source="A3PVL-LssGaaPiKk9e5L-1" target="fVEAx7NrUSZAST1FFZmU-2" edge="1">
          <mxGeometry relative="1" as="geometry">
            <mxPoint x="540" y="30" as="targetPoint" />
            <Array as="points">
              <mxPoint x="470" y="180" />
              <mxPoint x="470" y="-10" />
            </Array>
          </mxGeometry>
        </mxCell>
        <mxCell id="A3PVL-LssGaaPiKk9e5L-1" value="Usuário" style="shape=umlActor;verticalLabelPosition=bottom;verticalAlign=top;html=1;outlineConnect=0;fillColor=#e1d5e7;strokeColor=#9673a6;" parent="1" vertex="1">
          <mxGeometry x="220" y="130" width="50" height="90" as="geometry" />
        </mxCell>
        <mxCell id="A3PVL-LssGaaPiKk9e5L-31" style="edgeStyle=orthogonalEdgeStyle;rounded=0;orthogonalLoop=1;jettySize=auto;html=1;curved=1;dashed=1;" parent="1" source="A3PVL-LssGaaPiKk9e5L-5" target="A3PVL-LssGaaPiKk9e5L-6" edge="1">
          <mxGeometry relative="1" as="geometry" />
        </mxCell>
        <mxCell id="A3PVL-LssGaaPiKk9e5L-32" value="Include" style="edgeLabel;html=1;align=center;verticalAlign=middle;resizable=0;points=[];" parent="A3PVL-LssGaaPiKk9e5L-31" vertex="1" connectable="0">
          <mxGeometry x="0.2629" y="-1" relative="1" as="geometry">
            <mxPoint as="offset" />
          </mxGeometry>
        </mxCell>
        <mxCell id="A3PVL-LssGaaPiKk9e5L-5" value="Realizar cadastro" style="ellipse;whiteSpace=wrap;html=1;fillColor=#dae8fc;strokeColor=#6c8ebf;" parent="1" vertex="1">
          <mxGeometry x="480" y="-320" width="120" height="80" as="geometry" />
        </mxCell>
        <mxCell id="A3PVL-LssGaaPiKk9e5L-33" style="edgeStyle=orthogonalEdgeStyle;rounded=0;orthogonalLoop=1;jettySize=auto;html=1;entryX=1;entryY=0.5;entryDx=0;entryDy=0;curved=1;dashed=1;endArrow=none;endFill=0;startArrow=classic;startFill=1;" parent="1" source="A3PVL-LssGaaPiKk9e5L-6" target="A3PVL-LssGaaPiKk9e5L-11" edge="1">
          <mxGeometry relative="1" as="geometry">
            <Array as="points">
              <mxPoint x="1360" y="-120" />
              <mxPoint x="1360" y="630" />
            </Array>
          </mxGeometry>
        </mxCell>
        <mxCell id="A3PVL-LssGaaPiKk9e5L-34" value="Include" style="edgeLabel;html=1;align=center;verticalAlign=middle;resizable=0;points=[];" parent="A3PVL-LssGaaPiKk9e5L-33" vertex="1" connectable="0">
          <mxGeometry x="-0.1259" y="2" relative="1" as="geometry">
            <mxPoint as="offset" />
          </mxGeometry>
        </mxCell>
        <mxCell id="A3PVL-LssGaaPiKk9e5L-36" style="edgeStyle=orthogonalEdgeStyle;rounded=0;orthogonalLoop=1;jettySize=auto;html=1;entryX=0.5;entryY=0;entryDx=0;entryDy=0;curved=1;dashed=1;endArrow=none;endFill=0;startArrow=classic;startFill=1;" parent="1" source="A3PVL-LssGaaPiKk9e5L-6" target="A3PVL-LssGaaPiKk9e5L-13" edge="1">
          <mxGeometry relative="1" as="geometry" />
        </mxCell>
        <mxCell id="A3PVL-LssGaaPiKk9e5L-37" value="Include" style="edgeLabel;html=1;align=center;verticalAlign=middle;resizable=0;points=[];" parent="A3PVL-LssGaaPiKk9e5L-36" vertex="1" connectable="0">
          <mxGeometry x="0.1298" y="-2" relative="1" as="geometry">
            <mxPoint x="61" y="48" as="offset" />
          </mxGeometry>
        </mxCell>
        <mxCell id="A3PVL-LssGaaPiKk9e5L-39" style="edgeStyle=orthogonalEdgeStyle;rounded=0;orthogonalLoop=1;jettySize=auto;html=1;entryX=0;entryY=0.5;entryDx=0;entryDy=0;curved=1;dashed=1;startArrow=classic;startFill=1;endArrow=none;endFill=0;" parent="1" source="A3PVL-LssGaaPiKk9e5L-6" target="A3PVL-LssGaaPiKk9e5L-7" edge="1">
          <mxGeometry relative="1" as="geometry" />
        </mxCell>
        <mxCell id="A3PVL-LssGaaPiKk9e5L-40" value="Include" style="edgeLabel;html=1;align=center;verticalAlign=middle;resizable=0;points=[];" parent="A3PVL-LssGaaPiKk9e5L-39" vertex="1" connectable="0">
          <mxGeometry x="-0.4317" y="-2" relative="1" as="geometry">
            <mxPoint x="16" y="-72" as="offset" />
          </mxGeometry>
        </mxCell>
        <mxCell id="A3PVL-LssGaaPiKk9e5L-51" style="edgeStyle=orthogonalEdgeStyle;rounded=0;orthogonalLoop=1;jettySize=auto;html=1;entryX=1;entryY=0.5;entryDx=0;entryDy=0;curved=1;dashed=1;endArrow=none;endFill=0;startArrow=classic;startFill=1;" parent="1" source="A3PVL-LssGaaPiKk9e5L-6" target="A3PVL-LssGaaPiKk9e5L-15" edge="1">
          <mxGeometry relative="1" as="geometry" />
        </mxCell>
        <mxCell id="A3PVL-LssGaaPiKk9e5L-52" value="Include" style="edgeLabel;html=1;align=center;verticalAlign=middle;resizable=0;points=[];" parent="A3PVL-LssGaaPiKk9e5L-51" vertex="1" connectable="0">
          <mxGeometry x="0.0774" y="-2" relative="1" as="geometry">
            <mxPoint as="offset" />
          </mxGeometry>
        </mxCell>
        <mxCell id="A3PVL-LssGaaPiKk9e5L-6" value="Fazer Login" style="ellipse;whiteSpace=wrap;html=1;fillColor=#d5e8d4;strokeColor=#82b366;" parent="1" vertex="1">
          <mxGeometry x="620" y="-160" width="120" height="80" as="geometry" />
        </mxCell>
        <mxCell id="A3PVL-LssGaaPiKk9e5L-7" value="Seleção de stacks" style="ellipse;whiteSpace=wrap;html=1;fillColor=#dae8fc;strokeColor=#6c8ebf;" parent="1" vertex="1">
          <mxGeometry x="910" y="-250" width="120" height="80" as="geometry" />
        </mxCell>
        <mxCell id="A3PVL-LssGaaPiKk9e5L-45" style="edgeStyle=orthogonalEdgeStyle;rounded=0;orthogonalLoop=1;jettySize=auto;html=1;entryX=1;entryY=0.5;entryDx=0;entryDy=0;curved=1;dashed=1;startArrow=classic;startFill=1;exitX=0.5;exitY=0;exitDx=0;exitDy=0;endArrow=none;endFill=0;" parent="1" source="A3PVL-LssGaaPiKk9e5L-8" target="A3PVL-LssGaaPiKk9e5L-14" edge="1">
          <mxGeometry relative="1" as="geometry">
            <mxPoint x="1090" y="270" as="sourcePoint" />
          </mxGeometry>
        </mxCell>
        <mxCell id="A3PVL-LssGaaPiKk9e5L-46" value="Extend" style="edgeLabel;html=1;align=center;verticalAlign=middle;resizable=0;points=[];" parent="A3PVL-LssGaaPiKk9e5L-45" vertex="1" connectable="0">
          <mxGeometry x="-0.1654" y="-1" relative="1" as="geometry">
            <mxPoint as="offset" />
          </mxGeometry>
        </mxCell>
        <mxCell id="A3PVL-LssGaaPiKk9e5L-49" style="edgeStyle=orthogonalEdgeStyle;rounded=0;orthogonalLoop=1;jettySize=auto;html=1;entryX=1;entryY=0.5;entryDx=0;entryDy=0;curved=1;dashed=1;endArrow=none;endFill=0;startArrow=classic;startFill=1;" parent="1" source="A3PVL-LssGaaPiKk9e5L-8" target="A3PVL-LssGaaPiKk9e5L-9" edge="1">
          <mxGeometry relative="1" as="geometry" />
        </mxCell>
        <mxCell id="A3PVL-LssGaaPiKk9e5L-50" value="Extend" style="edgeLabel;html=1;align=center;verticalAlign=middle;resizable=0;points=[];" parent="A3PVL-LssGaaPiKk9e5L-49" vertex="1" connectable="0">
          <mxGeometry x="-0.2678" y="1" relative="1" as="geometry">
            <mxPoint as="offset" />
          </mxGeometry>
        </mxCell>
        <mxCell id="A3PVL-LssGaaPiKk9e5L-8" value="Criação de publicação" style="ellipse;whiteSpace=wrap;html=1;fillColor=#d5e8d4;strokeColor=#82b366;" parent="1" vertex="1">
          <mxGeometry x="1100" y="230" width="120" height="80" as="geometry" />
        </mxCell>
        <mxCell id="A3PVL-LssGaaPiKk9e5L-9" value="Edição de publicação" style="ellipse;whiteSpace=wrap;html=1;fillColor=#ffe6cc;strokeColor=#d79b00;" parent="1" vertex="1">
          <mxGeometry x="1000" y="370" width="120" height="80" as="geometry" />
        </mxCell>
        <mxCell id="A3PVL-LssGaaPiKk9e5L-10" value="Interação de publicação(Curtir, Comentar)" style="ellipse;whiteSpace=wrap;html=1;fillColor=#ffe6cc;strokeColor=#d79b00;" parent="1" vertex="1">
          <mxGeometry x="780" y="430" width="120" height="80" as="geometry" />
        </mxCell>
        <mxCell id="A3PVL-LssGaaPiKk9e5L-11" value="Logout" style="ellipse;whiteSpace=wrap;html=1;fillColor=#f8cecc;strokeColor=#b85450;" parent="1" vertex="1">
          <mxGeometry x="420" y="590" width="120" height="80" as="geometry" />
        </mxCell>
        <mxCell id="A3PVL-LssGaaPiKk9e5L-41" style="edgeStyle=orthogonalEdgeStyle;rounded=0;orthogonalLoop=1;jettySize=auto;html=1;entryX=1;entryY=0.5;entryDx=0;entryDy=0;curved=1;dashed=1;endArrow=none;endFill=0;startArrow=classic;startFill=1;exitX=1;exitY=0.5;exitDx=0;exitDy=0;" parent="1" edge="1">
          <mxGeometry relative="1" as="geometry">
            <mxPoint x="900" y="480" as="targetPoint" />
            <Array as="points">
              <mxPoint x="1290" y="10" />
              <mxPoint x="1290" y="480" />
            </Array>
            <mxPoint x="1090" y="10" as="sourcePoint" />
          </mxGeometry>
        </mxCell>
        <mxCell id="A3PVL-LssGaaPiKk9e5L-43" value="Extend" style="edgeLabel;html=1;align=center;verticalAlign=middle;resizable=0;points=[];" parent="A3PVL-LssGaaPiKk9e5L-41" vertex="1" connectable="0">
          <mxGeometry x="-0.3477" relative="1" as="geometry">
            <mxPoint x="-10" y="118" as="offset" />
          </mxGeometry>
        </mxCell>
        <mxCell id="A3PVL-LssGaaPiKk9e5L-13" value="Listagem de publicação(Feed)" style="ellipse;whiteSpace=wrap;html=1;fillColor=#dae8fc;strokeColor=#6c8ebf;" parent="1" vertex="1">
          <mxGeometry x="970" y="-40" width="120" height="80" as="geometry" />
        </mxCell>
        <mxCell id="A3PVL-LssGaaPiKk9e5L-15" value="Pesquisar(Stacks, publicações e usuários)" style="ellipse;whiteSpace=wrap;html=1;fillColor=#dae8fc;strokeColor=#6c8ebf;" parent="1" vertex="1">
          <mxGeometry x="550" y="530" width="120" height="80" as="geometry" />
        </mxCell>
        <mxCell id="A3PVL-LssGaaPiKk9e5L-54" value="" style="edgeStyle=orthogonalEdgeStyle;rounded=0;orthogonalLoop=1;jettySize=auto;html=1;curved=1;" parent="1" source="A3PVL-LssGaaPiKk9e5L-1" target="A3PVL-LssGaaPiKk9e5L-14" edge="1">
          <mxGeometry relative="1" as="geometry">
            <mxPoint x="270" y="180" as="sourcePoint" />
            <mxPoint x="1140" y="20" as="targetPoint" />
          </mxGeometry>
        </mxCell>
        <mxCell id="A3PVL-LssGaaPiKk9e5L-14" value="Deletar publicação" style="ellipse;whiteSpace=wrap;html=1;fillColor=#f8cecc;strokeColor=#b85450;" parent="1" vertex="1">
          <mxGeometry x="790" y="150" width="120" height="80" as="geometry" />
        </mxCell>
        <mxCell id="fVEAx7NrUSZAST1FFZmU-2" value="Listagem de publicação(Home)" style="ellipse;whiteSpace=wrap;html=1;fillColor=#dae8fc;strokeColor=#6c8ebf;" parent="1" vertex="1">
          <mxGeometry x="530" y="-50" width="120" height="80" as="geometry" />
        </mxCell>
      </root>
    </mxGraphModel>
  </diagram>
</mxfile>
